<svg xmlns="http://www.w3.org/2000/svg" viewBox="0 0 128 30.78" fill="currentColor" role="img" aria-label="Typeclipper logo">
  <path d="M21.83,8.96h0s-.01,0-.02,0c0,0,0,0-.01,0-.27-.16-.61-.22-.98-.22-.33,0-.64,.04-.9,.17l-.11,.06c-.3,.18-.44,.48-.44,.81v3.11c-.15,.95-.35,1.82-.61,2.63-.26,.81-.56,1.52-.89,2.1h0c-.32,.57-.68,.99-1.07,1.29-.36,.27-.75,.4-1.16,.4-.35,0-.58-.07-.74-.16-.16-.11-.29-.28-.39-.52-.09-.28-.14-.66-.14-1.14v-7.71c0-.16-.04-.33-.12-.48-.08-.14-.2-.25-.34-.33h0s-.01,0-.02,0c0,0,0,0,0,0-.27-.16-.62-.22-.98-.22-.36,0-.7,.06-.97,.23-.3,.18-.44,.48-.44,.81v2.45c-.39,1.2-.75,2.23-1.11,3.09h0c-.43,1.06-.84,1.89-1.22,2.5-.39,.61-.74,1.02-1.05,1.26-.32,.22-.59,.31-.83,.31-.31,0-.58-.08-.8-.23-.25-.16-.46-.38-.63-.69-.17-.31-.32-.69-.42-1.15-.09-.48-.13-1.02-.13-1.62v-3.87h2.52c.31,0,.63-.09,.83-.38h0s0-.01,.01-.02c0,0,0,0,0,0h0c.19-.26,.24-.61,.24-.96,0-.2-.02-.38-.05-.54-.03-.14-.09-.29-.19-.42h0c-.2-.3-.54-.4-.85-.4h-2.52V4.77c0-.16-.04-.33-.12-.48-.08-.14-.2-.25-.34-.33h0s-.01,0-.01,0c0,0,0,0-.01,0h0c-.27-.16-.6-.22-.95-.22-.37,0-.72,.06-1,.23-.3,.18-.44,.48-.44,.81v4.32H1.07c-.32,0-.62,.11-.83,.38h0c-.1,.14-.16,.31-.18,.46-.03,.16-.04,.34-.04,.53,0,.35,.04,.71,.21,.96h0s.01,.03,.01,.03c.21,.27,.52,.38,.83,.38h1.38v4.08c0,.93,.09,1.77,.27,2.52h0c.18,.74,.46,1.39,.84,1.92h0c.38,.52,.85,.92,1.41,1.2h0c.55,.3,1.18,.44,1.87,.45,0,0,.02,0,.02,0,0,0,0,0,.01,0,0,0,.01,0,.02,0,.05,0,.1,0,.15,0,.75-.03,1.44-.22,2.07-.59l.26-.17c.57-.41,1.09-.98,1.54-1.69h0c.22-.34,.44-.72,.65-1.14,.06,.68,.21,1.26,.46,1.75,.33,.65,.8,1.13,1.41,1.43h0c.59,.28,1.25,.42,1.96,.42,.43,0,.87-.09,1.32-.26,.47-.17,.91-.43,1.33-.76h0c.44-.36,.85-.82,1.23-1.38,.05-.07,.09-.14,.13-.21v5.27c0,.91-.08,1.61-.24,2.11h0c-.14,.51-.36,.82-.63,.99h0s0,.01,0,.01c-.27,.19-.69,.32-1.28,.32-.57,0-1.07-.1-1.5-.29-.45-.2-.95-.51-1.51-.96h0s0-.01,0-.01l-.2-.14c-.21-.13-.44-.23-.67-.23h-.04c-.28,.03-.56,.2-.82,.39h-.02c-.3,.27-.58,.6-.58,1h0s0,.03,0,.03c.02,.33,.17,.62,.38,.88h.01s.01,.03,.01,.03c.34,.34,.76,.65,1.24,.95h0c.51,.32,1.08,.56,1.71,.74h0c.63,.2,1.28,.3,1.95,.3,1.08,0,2.02-.22,2.8-.69h0c.79-.46,1.37-1.16,1.75-2.08,.38-.91,.57-2.01,.57-3.29V9.78c0-.16-.04-.33-.12-.48-.08-.14-.2-.25-.34-.33Z"/>
  <path d="M71.84,5.53c.33,.35,.79,.49,1.3,.49,.51,0,.97-.14,1.3-.49,.34-.36,.45-.85,.42-1.39,0-.54-.12-1.03-.42-1.39h0s0,0,0,0c0,0,0,0,0,0-.31-.37-.77-.52-1.28-.52-.52,0-.98,.15-1.31,.52-.31,.36-.43,.85-.43,1.41,0,.54,.12,1.03,.43,1.38h0Z"/>
  <path d="M127.76,9.64h0c-.24-.31-.6-.53-1.02-.71h0c-.43-.2-.87-.3-1.32-.3-.4,0-.8,.09-1.2,.27h0c-.3,.14-.59,.32-.87,.55l-.29,.25c-.39,.34-.76,.79-1.1,1.32-.03,.04-.05,.09-.08,.13v-1.39c0-.16-.03-.33-.12-.48-.08-.14-.2-.25-.34-.33h0s-.01,0-.02,0c0,0,0,0-.01,0-.27-.16-.61-.22-.98-.22-.36,0-.7,.06-.97,.23-.3,.18-.44,.48-.44,.81v2c-.51,1.2-1.02,2.28-1.53,3.22-.53,.99-1.07,1.81-1.61,2.47-.54,.65-1.11,1.13-1.68,1.45-.57,.3-1.17,.46-1.8,.46h0c-.71,0-1.29-.15-1.75-.42-.39-.24-.71-.59-.96-1.06l-.1-.21s-.04-.09-.06-.14c.45-.09,.89-.19,1.31-.31h0c.75-.23,1.44-.49,2.07-.8,.65-.31,1.22-.67,1.7-1.09h0c.5-.43,.9-.92,1.19-1.45h0c.3-.57,.45-1.17,.45-1.82,0-.74-.16-1.38-.51-1.91-.33-.53-.8-.92-1.39-1.17-.56-.24-1.2-.36-1.89-.36-.94,0-1.81,.19-2.59,.58-.78,.37-1.43,.9-1.97,1.59-.53,.66-.94,1.43-1.24,2.3h0c-.28,.86-.42,1.77-.42,2.73,0,1.22,.23,2.31,.72,3.25h0c.49,.93,1.2,1.65,2.11,2.16,.91,.51,2.01,.75,3.28,.75,0,0,0,0,0,0,0,0,0,0,0,0,0,0,0,0,.01,0,0,0,.01,0,.02,0,1.02,0,1.97-.26,2.84-.76,.86-.5,1.64-1.18,2.33-2.04,.52-.64,1-1.36,1.44-2.17v3.87c0,.33,.14,.63,.44,.81h0s0,0,0,0h0c.27,.17,.61,.23,.97,.23s.71-.06,.98-.22h0s.02,0,.02-.01h0c.14-.08,.25-.19,.34-.33,.09-.15,.12-.32,.12-.48v-3.2c.14-.95,.33-1.82,.58-2.61,.27-.82,.57-1.51,.9-2.08,.32-.58,.66-.99,.99-1.28,.34-.29,.62-.39,.84-.39,.19,0,.34,.03,.46,.07h.01c.17,.06,.33,.13,.5,.21,.27,.13,.55,.18,.85,.1h.02s.02,0,.02,0c.29-.11,.51-.33,.68-.59,.14-.22,.25-.45,.27-.69v-.1c.02-.25-.05-.5-.23-.69Zm-18.36,4.18c.17-.52,.4-.96,.68-1.34,.29-.38,.61-.65,.96-.84h0c.36-.2,.73-.3,1.11-.3,.4,0,.67,.09,.85,.23h.01s.01,.01,.01,.01c.13,.09,.25,.28,.25,.69,0,.28-.08,.54-.25,.77h0c-.17,.24-.41,.49-.75,.73-.33,.23-.72,.44-1.16,.63-.43,.18-.89,.33-1.38,.47-.19,.05-.37,.1-.55,.14,.03-.44,.1-.84,.22-1.21Z"/>
  <path d="M103.47,10.49l-.15-.21c-.8-1.09-1.91-1.64-3.28-1.64-.59,0-1.16,.12-1.71,.36-.5,.22-.95,.55-1.37,.99l-.18,.19c-.14,.16-.27,.33-.4,.52v-.93c0-.16-.03-.33-.12-.48-.08-.14-.2-.25-.34-.33h0s-.01,0-.01,0c0,0,0,0-.01,0-.27-.16-.6-.22-.95-.22-.37,0-.72,.06-1,.23-.3,.18-.44,.48-.44,.81V29.64c0,.33,.14,.63,.44,.81h0s0,0,0,0h0c.27,.17,.62,.23,.99,.23s.69-.06,.95-.22h0s.02,0,.03-.01h0c.13-.08,.25-.19,.34-.33,.09-.15,.12-.32,.12-.48v-8.1c.25,.1,.51,.19,.76,.25,.48,.13,.96,.2,1.43,.2,.77,0,1.48-.12,2.11-.36,.64-.23,1.2-.56,1.67-.99,.49-.44,.89-.96,1.21-1.57,.32-.6,.55-1.27,.7-2h0c.16-.73,.24-1.51,.24-2.34,0-1.75-.33-3.18-1.03-4.25Zm-2.07,5.95h0c-.09,.51-.22,.94-.41,1.32h0c-.17,.37-.37,.67-.61,.9-.23,.22-.51,.39-.82,.51h0c-.3,.12-.65,.18-1.05,.18-.31,0-.68-.05-1.11-.15-.32-.08-.66-.22-1.02-.41v-2.47c.27-1.28,.6-2.28,.96-3,.37-.74,.76-1.23,1.14-1.52,.42-.3,.83-.43,1.24-.43,.46,0,.78,.14,1.01,.38h0c.27,.28,.48,.67,.61,1.2h0c.14,.54,.22,1.15,.22,1.83,0,.61-.05,1.17-.15,1.66Z"/>
  <path d="M36.25,10.49l-.15-.21c-.8-1.09-1.91-1.64-3.29-1.64-.59,0-1.16,.12-1.71,.36-.5,.22-.95,.55-1.37,.99l-.18,.19c-.14,.16-.27,.33-.4,.52v-.93c0-.16-.04-.33-.12-.48-.08-.14-.2-.25-.34-.33h0s-.01,0-.01,0c0,0,0,0-.01,0-.27-.16-.6-.22-.95-.22-.37,0-.72,.06-1,.23-.3,.18-.44,.48-.44,.81V29.64c0,.33,.14,.63,.44,.81h0s0,0,0,0c0,0,0,0,0,0h0c.27,.17,.62,.23,.99,.23s.69-.06,.95-.22h0s.02,0,.03-.01h0c.13-.08,.25-.19,.34-.33,.09-.15,.12-.32,.12-.48v-8.1c.25,.1,.51,.19,.76,.25,.48,.13,.96,.2,1.43,.2,.77,0,1.48-.12,2.11-.36,.64-.23,1.2-.56,1.67-.99h0c.49-.44,.89-.96,1.21-1.57,.32-.6,.55-1.27,.7-2h0c.16-.73,.24-1.51,.24-2.34,0-1.75-.33-3.18-1.04-4.25Zm-2.07,5.95h0c-.09,.51-.22,.94-.41,1.32h0c-.17,.37-.37,.67-.61,.9-.23,.22-.51,.39-.82,.51h0c-.3,.12-.65,.18-1.05,.18-.31,0-.68-.05-1.11-.15-.32-.08-.66-.22-1.02-.41v-2.47c.27-1.28,.6-2.28,.96-3,.37-.74,.76-1.23,1.14-1.52,.42-.3,.83-.43,1.24-.43,.46,0,.78,.14,1.01,.38h0c.27,.28,.48,.67,.61,1.2h0c.14,.54,.22,1.15,.22,1.83,0,.61-.05,1.17-.15,1.66Z"/>
  <path d="M89.34,10.49l-.15-.21c-.8-1.09-1.91-1.64-3.28-1.64-.59,0-1.16,.12-1.71,.36-.5,.22-.95,.55-1.37,.99l-.18,.19c-.14,.16-.27,.33-.4,.52v-.93c0-.16-.03-.33-.12-.48-.08-.14-.2-.25-.34-.33h0s-.01,0-.01,0c0,0,0,0-.01,0-.27-.16-.6-.22-.95-.22-.37,0-.72,.06-1,.23-.3,.18-.44,.48-.44,.81v2.46c-.39,1.2-.75,2.23-1.11,3.08h0c-.43,1.06-.84,1.89-1.22,2.5-.39,.61-.74,1.02-1.06,1.26-.3,.21-.56,.3-.79,.31-.22,0-.31-.07-.37-.15-.08-.17-.15-.53-.15-1.15V9.78c0-.16-.04-.33-.12-.48-.08-.14-.2-.25-.34-.33h0s-.01,0-.02,0c0,0,0,0,0,0-.27-.16-.62-.22-.98-.22-.36,0-.7,.06-.97,.23-.3,.18-.44,.48-.44,.81v2.46c-.39,1.2-.75,2.23-1.11,3.08h0c-.43,1.06-.84,1.89-1.22,2.5-.39,.61-.74,1.02-1.06,1.26-.29,.21-.55,.29-.78,.31-.21,0-.3-.07-.36-.15-.08-.17-.15-.53-.15-1.15V1.04c0-.16-.03-.33-.12-.48-.08-.14-.2-.25-.34-.33h0s-.01,0-.02,0c0,0,0,0-.01,0-.27-.16-.61-.22-.98-.22-.36,0-.7,.06-.97,.23-.3,.18-.44,.48-.44,.81V11.99c-.61,1.44-1.28,2.69-2.02,3.76h0c-.82,1.2-1.68,2.1-2.57,2.73-.88,.6-1.78,.9-2.72,.9h-.01c-.78,0-1.39-.16-1.84-.45-.4-.26-.71-.63-.94-1.11l-.09-.21c-.22-.6-.34-1.35-.34-2.24,0-.65,.07-1.21,.21-1.69h0c.14-.5,.34-.92,.58-1.26,.25-.33,.56-.58,.91-.75h.01c.35-.19,.75-.28,1.2-.28,.63,0,1.07,.13,1.38,.34h.02c.4,.26,.81,.56,1.24,.91,.25,.21,.57,.34,.93,.25,.28-.08,.53-.26,.75-.49h0s0-.01,0-.01c.19-.2,.34-.42,.42-.65l-.41-.14,.41,.14h0c.11-.38-.06-.72-.26-.97h0c-.6-.74-1.31-1.28-2.13-1.62-.79-.33-1.58-.5-2.36-.5-.85,0-1.64,.17-2.37,.51h0c-.71,.34-1.33,.82-1.85,1.44-.52,.6-.92,1.31-1.22,2.11h0c-.15,.44-.26,.89-.33,1.37-.44,.88-.88,1.65-1.33,2.33l-.24,.34h0c-.61,.89-1.26,1.54-1.93,1.98-.68,.44-1.4,.65-2.18,.65h0c-.71,0-1.29-.15-1.75-.42-.39-.24-.71-.59-.96-1.06l-.1-.21s-.04-.09-.05-.14c.45-.09,.89-.19,1.31-.31h0c.75-.23,1.44-.49,2.07-.8,.65-.31,1.22-.67,1.7-1.09h0c.5-.43,.9-.92,1.19-1.45h0c.3-.57,.45-1.17,.45-1.82,0-.74-.16-1.38-.51-1.91-.33-.53-.8-.92-1.39-1.17-.56-.24-1.2-.36-1.89-.36-.94,0-1.81,.19-2.59,.58-.77,.37-1.43,.9-1.97,1.59-.53,.66-.94,1.43-1.24,2.3h0c-.28,.86-.42,1.77-.42,2.73,0,1.22,.24,2.31,.72,3.25h0c.49,.93,1.19,1.65,2.11,2.16,.92,.51,2.03,.75,3.31,.75,0,0,0,0,0,0,0,0,0,0,0,0,1.2,0,2.3-.32,3.29-.95h0c.96-.65,1.8-1.55,2.52-2.7h0c.05-.08,.1-.16,.15-.24,.25,.82,.64,1.53,1.16,2.13h0c1.04,1.17,2.57,1.73,4.49,1.75,.02,0,.03,0,.05,0,.01,0,.03,0,.04,0,.02,0,.03,0,.05,0s.03,0,.04,0c1.33-.03,2.58-.42,3.74-1.19h0c1.19-.8,2.27-1.95,3.22-3.41,.11-.16,.21-.33,.31-.5v1.38c0,.66,.07,1.24,.2,1.73h0s0,.02,0,.02c.15,.46,.37,.86,.65,1.16h.01c.28,.29,.61,.49,.98,.62,.29,.1,.59,.16,.9,.18,.05,0,.09,0,.14,0,.02,0,.03,0,.05,0,.01,0,.03,0,.04,0,.06,0,.12,0,.18,0,.72-.04,1.38-.23,1.98-.59l.26-.17c.57-.41,1.09-.98,1.54-1.69h0c.21-.33,.42-.69,.62-1.08,.01,.59,.07,1.11,.2,1.55h0s0,.02,0,.02c.15,.46,.37,.86,.65,1.16h.01c.28,.29,.61,.5,.98,.63,.3,.1,.61,.16,.93,.18,.04,0,.09,0,.13,0,.01,0,.02,0,.04,0,0,0,.02,0,.03,0,.06,0,.11,0,.17,0,.73-.03,1.4-.23,2.02-.59l.26-.17c.57-.41,1.09-.98,1.54-1.69h0c.21-.32,.42-.68,.62-1.08v11.18c0,.33,.14,.63,.44,.81h0s0,0,0,0h0c.27,.17,.62,.23,.99,.23s.69-.06,.95-.22h0s.02,0,.03-.01h0c.13-.08,.25-.19,.34-.33,.09-.15,.12-.32,.12-.48v-8.1c.25,.1,.51,.19,.76,.25,.48,.13,.96,.2,1.43,.2,.77,0,1.48-.12,2.11-.36,.64-.23,1.2-.56,1.67-.99h0c.49-.44,.89-.96,1.21-1.57,.32-.6,.55-1.27,.7-2h0c.16-.73,.24-1.51,.24-2.34,0-1.75-.33-3.18-1.04-4.25Zm-47.15,3.34c.17-.52,.4-.96,.67-1.34,.29-.38,.61-.65,.96-.84h0c.36-.2,.73-.3,1.12-.3,.4,0,.67,.09,.85,.23h.01s.01,.01,.01,.01c.13,.09,.25,.28,.25,.69,0,.28-.08,.54-.25,.77h0c-.17,.24-.41,.49-.75,.73-.33,.23-.72,.44-1.16,.63-.43,.18-.89,.33-1.38,.47-.19,.05-.37,.1-.55,.14,.03-.44,.1-.84,.22-1.21Zm45.08,2.62h0c-.09,.51-.22,.94-.41,1.32h0c-.17,.37-.37,.67-.61,.9-.23,.22-.51,.39-.82,.51h0c-.3,.12-.65,.18-1.05,.18-.31,0-.68-.05-1.11-.15-.32-.08-.66-.22-1.02-.41v-2.47c.27-1.28,.6-2.28,.96-3,.37-.74,.76-1.23,1.14-1.52,.42-.3,.83-.43,1.24-.43,.46,0,.78,.14,1.01,.38h0c.27,.28,.48,.67,.61,1.2h0c.14,.54,.22,1.15,.22,1.83,0,.61-.05,1.17-.15,1.66Z"/>
</svg>